{"asset":{"generator":"Khronos glTF Blender I/O v4.3.47","version":"2.0"},"scene":0,"scenes":[{"name":"Scene","nodes":[60]}],"nodes":[{"name":"Head","rotation":[-0.2984844148159027,-1.4431583394980407e-07,-5.9094141136029066e-08,0.9544144868850708],"translation":[-1.7763568394002505e-14,0.06823385506868362,-2.2351738238057806e-08]},{"children":[0],"name":"neck_01","rotation":[0.16377706825733185,1.4126479186415963e-07,7.1569226101075856e-09,0.9864974021911621],"translation":[-3.9968028886505635e-15,0.21709221601486206,1.6763806343078613e-08]},{"name":"index_04_leaf_l","rotation":[1.6184301676602786e-09,0.9999394416809082,-2.0428669245120545e-07,0.011005494743585587],"translation":[-1.9208528101444244e-09,0.03234827518463135,2.2565654944628477e-07]},{"children":[2],"name":"index_03_l","rotation":[-1.332874035142595e-05,-0.00012567959493026137,5.048757157055661e-05,1],"scale":[0.9999999403953552,1,0.9999998807907104],"translation":[1.0113581083714962e-09,0.03760731592774391,3.816239768639207e-08]},{"children":[3],"name":"index_02_l","rotation":[7.679270493099466e-05,-5.389894340623869e-06,-0.000273942481726408,1],"scale":[0.9999999403953552,0.9999999403953552,1],"translation":[-3.2105162972584367e-09,0.029533397406339645,6.20711944065988e-08]},{"children":[4],"name":"index_01_l","rotation":[0.02758585661649704,0.7975870966911316,0.007132017984986305,0.6025304794311523],"scale":[1,0.9999998807907104,0.9999999403953552],"translation":[0.016769153997302055,0.13932418823242188,0.043242283165454865]},{"name":"middle_04_leaf_l","rotation":[2.885937355756596e-08,0.9999566674232483,4.79109814932599e-07,0.009309829212725163],"scale":[1.0000001192092896,1.0000001192092896,1.0000001192092896],"translation":[-7.839844329282641e-10,0.035029180347919464,-1.1146767064929008e-08]},{"children":[6],"name":"middle_03_l","rotation":[0.0005841838428750634,-4.1675055399537086e-05,-0.002068659756332636,0.9999976754188538],"scale":[0.9999998807907104,1.0000001192092896,1],"translation":[1.8444552551954985e-09,0.038042936474084854,-9.462382877245545e-09]},{"children":[7],"name":"middle_02_l","rotation":[-0.0003272975154686719,2.316342761332635e-05,0.001161018037237227,0.9999992847442627],"scale":[1,1.0000001192092896,0.9999998807907104],"translation":[-1.127773430198431e-09,0.032276853919029236,6.114714778959751e-08]},{"children":[8],"name":"middle_01_l","rotation":[-0.022616207599639893,0.7969868183135986,-0.029898760840296745,0.6028321981430054],"scale":[1,1.0000001192092896,1],"translation":[-0.0010533106978982687,0.14138339459896088,0.007657974027097225]},{"name":"ring_04_leaf_l","rotation":[9.937308753649177e-09,0.9997998476028442,5.690937427971221e-07,0.02000754326581955],"scale":[1,1.0000001192092896,1],"translation":[7.712515071034431e-09,0.03704778477549553,7.497146725654602e-08]},{"children":[10],"name":"ring_03_l","rotation":[0.0006015036487951875,-0.00011930071195820346,-0.0021557167638093233,0.9999974966049194],"scale":[1,1,0.9999999403953552],"translation":[9.604264050722122e-10,0.030030805617570877,2.270098775625229e-08]},{"children":[11],"name":"ring_02_l","rotation":[-0.00083288608584553,6.487101927632466e-05,0.002976661780849099,0.999995231628418],"scale":[0.9999998807907104,1,1],"translation":[-3.827153705060482e-09,0.036177948117256165,2.0780134946107864e-08]},{"children":[12],"name":"ring_01_l","rotation":[-0.05482403188943863,0.7931684255599976,-0.07220933586359024,0.6022158861160278],"scale":[1.0000001192092896,1.0000001192092896,1.0000001192092896],"translation":[-0.00841994397342205,0.13239477574825287,-0.02928939461708069]},{"name":"thumb_04_leaf_l","rotation":[-9.2883134072963e-08,0.47057464718818665,-8.628633452190115e-08,0.8823602199554443],"scale":[0.9999999403953552,1.0000001192092896,1],"translation":[2.7008354663848877e-08,0.027478255331516266,9.313225746154785e-09]},{"children":[14],"name":"thumb_03_l","rotation":[-0.0005965289892628789,-5.1158025598851964e-05,3.516069409670308e-05,0.9999998211860657],"translation":[2.9802322387695312e-08,0.031686995178461075,2.2351741790771484e-08]},{"children":[15],"name":"thumb_02_l","rotation":[-0.00013349765504244715,1.0368880793976132e-05,0.00016298402624670416,1],"scale":[0.9999999403953552,0.9999998807907104,0.9999999403953552],"translation":[9.627547115087509e-08,0.0479423888027668,7.450580596923828e-09]},{"children":[16],"name":"thumb_01_l","rotation":[-0.29589107632637024,-0.9367260336875916,-0.16833403706550598,0.08158739656209946],"scale":[1,0.9999997615814209,1],"translation":[0.039743416011333466,0.05635620653629303,0.036033350974321365]},{"children":[5,9,13,17],"name":"hand_l","rotation":[-0.013976003043353558,-6.55998974252725e-07,-7.238703005896241e-07,0.9999023675918579],"scale":[1,0.9999999403953552,1.0000001192092896],"translation":[7.968006343617162e-08,0.21976880729198456,-2.9802322387695312e-08]},{"children":[18],"name":"lowerarm_l","rotation":[0.0308931153267622,4.0694473568692047e-08,2.602278925678547e-07,0.9995226860046387],"scale":[1,1,0.9999999403953552],"translation":[-2.7573722860552152e-08,0.23964636027812958,-2.7008354663848877e-08]},{"children":[19],"name":"upperarm_l","rotation":[0.18376579880714417,0.5994763970375061,-0.14334861934185028,0.7657084465026855],"scale":[0.9999998211860657,0.9999998807907104,1],"translation":[-0.029815729707479477,0.15035311877727509,-0.0026829540729522705]},{"children":[20],"name":"clavicle_l","rotation":[-0.7159591317176819,-0.39127999544143677,-0.33755114674568176,0.46942704916000366],"scale":[1,0.9999998807907104,1],"translation":[0.026699988171458244,0.19709274172782898,0.043056145310401917]},{"name":"index_04_leaf_r","rotation":[5.33701127736208e-09,-0.9999394416809082,2.0339535922175855e-07,0.011005613952875137],"scale":[0.9999999403953552,0.9999999403953552,1],"translation":[-3.026798367500305e-09,0.03234831616282463,3.661625669337809e-09]},{"children":[22],"name":"index_03_r","rotation":[-1.3330440197023563e-05,0.00012556015281006694,-5.048396633355878e-05,1],"scale":[0.9999998807907104,0.9999999403953552,0.9999998211860657],"translation":[-4.610228643286973e-09,0.03760729357600212,1.6459307516925037e-07]},{"children":[23],"name":"index_02_r","rotation":[7.678339898120612e-05,5.343523298506625e-06,0.0002739304327405989,1],"scale":[0.9999999403953552,1,1],"translation":[4.220055416226387e-10,0.02953341044485569,1.7183992895297706e-07]},{"children":[24],"name":"index_01_r","rotation":[0.02758588269352913,-0.7975870966911316,-0.007132026366889477,0.6025305986404419],"scale":[0.9999998211860657,0.9999996423721313,0.9999999403953552],"translation":[-0.01676928624510765,0.1393240988254547,0.04324221611022949]},{"name":"middle_04_leaf_r","rotation":[2.9187846806166817e-08,-0.9999566674232483,-4.782094151778438e-07,0.009309828281402588],"scale":[1.0000001192092896,0.9999998211860657,1.0000001192092896],"translation":[-8.11269273981452e-10,0.03502911329269409,-9.538780432194471e-09]},{"children":[26],"name":"middle_03_r","rotation":[0.000584184133913368,4.167516090092249e-05,0.002068660454824567,0.9999976754188538],"scale":[0.9999998807907104,0.9999999403953552,1],"translation":[5.871697794646025e-09,0.03804292902350426,1.1292286217212677e-07]},{"children":[27],"name":"middle_02_r","rotation":[-0.0003273005713708699,-2.3146320017986e-05,-0.0011610026704147458,0.9999992847442627],"scale":[1,1,0.9999999403953552],"translation":[-6.05359673500061e-09,0.03227695822715759,-6.277332431636751e-08]},{"children":[28],"name":"middle_01_r","rotation":[-0.02261616662144661,-0.7969868779182434,0.029898734763264656,0.6028321385383606],"scale":[0.9999999403953552,0.9999998211860657,0.9999999403953552],"translation":[0.0010530523722991347,0.14138329029083252,0.007657927460968494]},{"name":"ring_04_leaf_r","rotation":[2.408460098024534e-08,-0.9997998476028442,-5.653095627167204e-07,0.02000742219388485],"scale":[1,0.9999997615814209,1],"translation":[5.209585651755333e-09,0.03704768791794777,-1.885928213596344e-08]},{"children":[30],"name":"ring_03_r","rotation":[0.0006015062099322677,0.00011953948705922812,0.0021557083819061518,0.9999974966049194],"scale":[0.9999999403953552,1,1],"translation":[-1.2281816452741623e-08,0.030030835419893265,-1.0407529771327972e-07]},{"children":[31],"name":"ring_02_r","rotation":[-0.000832884106785059,-6.501080497400835e-05,-0.0029766608495265245,0.999995231628418],"scale":[0.9999999403953552,1.0000001192092896,1],"translation":[3.128661774098873e-09,0.036177925765514374,3.096647560596466e-08]},{"children":[32],"name":"ring_01_r","rotation":[-0.05482404679059982,-0.7931684255599976,0.07220934331417084,0.6022158861160278],"scale":[1,1.0000001192092896,1.0000001192092896],"translation":[0.008419797755777836,0.13239465653896332,-0.029289420694112778]},{"name":"thumb_04_leaf_r","rotation":[-5.699649463508649e-08,-0.47057461738586426,1.5251839613483753e-07,0.8823602199554443],"scale":[0.9999997615814209,0.9999997019767761,0.9999998211860657],"translation":[-8.777715265750885e-08,0.027478227391839027,-4.842877388000488e-08]},{"children":[34],"name":"thumb_03_r","rotation":[-0.0005965289892628789,5.1156624977011234e-05,-3.521936741890386e-05,0.9999998211860657],"scale":[1.0000001192092896,1,1],"translation":[6.158370524644852e-08,0.031687039881944656,2.7939677238464355e-08]},{"children":[35],"name":"thumb_02_r","rotation":[-0.00013350136578083038,-1.045549288392067e-05,-0.00016293535009026527,1],"scale":[1,0.9999999403953552,1],"translation":[5.7334545999765396e-08,0.04794236272573471,4.470348358154297e-08]},{"children":[36],"name":"thumb_01_r","rotation":[-0.2958911955356598,0.9367260336875916,0.1683340072631836,0.08158726245164871],"scale":[0.9999999403953552,0.9999998211860657,1],"translation":[-0.03974354639649391,0.056356169283390045,0.036033302545547485]},{"children":[25,29,33,37],"name":"hand_r","rotation":[-0.013976058922708035,6.567115065081452e-07,7.102486847543332e-07,0.9999023675918579],"translation":[1.5485400695069984e-07,0.2197687327861786,4.0978193283081055e-08]},{"children":[38],"name":"lowerarm_r","rotation":[0.030893145129084587,-7.194959295020453e-08,-2.912554180056759e-07,0.9995226860046387],"scale":[1,1,0.9999999403953552],"translation":[-7.07644716158029e-08,0.239646315574646,-6.239861249923706e-08]},{"children":[39],"name":"upperarm_r","rotation":[0.18376579880714417,-0.5994762778282166,0.14334861934185028,0.7657085061073303],"scale":[1.0000001192092896,1.0000003576278687,1.0000001192092896],"translation":[0.029815673828125,0.15035313367843628,-0.0026825889945030212]},{"children":[40],"name":"clavicle_r","rotation":[-0.7159591913223267,0.3912799060344696,0.3375510275363922,0.46942710876464844],"scale":[1.0000001192092896,1.0000001192092896,1.0000001192092896],"translation":[-0.026700006797909737,0.19709274172782898,0.04305613040924072]},{"children":[1,21,41],"name":"spine_03","rotation":[0.05623240768909454,1.1902068308700109e-07,6.703428478971318e-09,0.9984176754951477],"scale":[1,1,1.0000001192092896],"translation":[0,0.10722463577985764,-1.4901161193847656e-08]},{"children":[42],"name":"spine_02","rotation":[0.12876826524734497,-1.1821688161717248e-07,1.5350376969536228e-08,0.9916747212409973],"translation":[-2.6645352591003757e-15,0.08915086090564728,1.1175870895385742e-08]},{"children":[43],"name":"spine_01","rotation":[-0.021810825914144516,3.5563349140566025e-14,-5.2001061234818735e-09,0.9997621774673462],"scale":[1,1.0000001192092896,1],"translation":[0,0.10952472686767578,-9.313225746154785e-10]},{"name":"ball_l","rotation":[3.7473188996273166e-08,0.9731351137161255,-0.2302347868680954,7.346967123567083e-08],"scale":[1,1.0000001192092896,1],"translation":[2.731068704520112e-10,0.13546109199523926,4.036873946233754e-09]},{"children":[45],"name":"foot_l","rotation":[-0.5885144472122192,0.00012346163566689938,8.973004878498614e-05,0.8084867596626282],"scale":[1,0.9999999403953552,0.9999999403953552],"translation":[-3.6482106224866584e-09,0.4108577370643616,-2.002707333303988e-09]},{"children":[46],"name":"calf_l","rotation":[0.10247679054737091,7.92882201494649e-05,-3.944126729038544e-05,0.9947354197502136],"scale":[0.9999999403953552,1,0.9999999403953552],"translation":[-1.0382336768088862e-08,0.34758561849594116,-9.858922567218542e-10]},{"children":[47],"name":"thigh_l","rotation":[0.9999988079071045,-3.5426771205493424e-07,-0.00023217622947413474,0.0015258565545082092],"translation":[0.09900558739900589,0.019667234271764755,0.0025309717748314142]},{"name":"ball_r","rotation":[3.757360289569078e-08,-0.9731351137161255,0.230234757065773,7.346966413024347e-08],"scale":[1,1.0000001192092896,0.9999998807907104],"translation":[-2.8472801893997257e-10,0.13546109199523926,4.061353919837529e-09]},{"children":[49],"name":"foot_r","rotation":[-0.5885144472122192,0.00012326883734203875,8.987034379970282e-05,0.8084867596626282],"scale":[1,0.9999999403953552,0.9999999403953552],"translation":[-3.6475285014603287e-09,0.4108577370643616,3.865352482534945e-09]},{"children":[50],"name":"calf_r","rotation":[0.10247679054737091,7.952539453981444e-05,-3.9465703594032675e-05,0.9947354197502136],"scale":[0.9999999403953552,1,0.9999999403953552],"translation":[5.645688361255452e-09,0.34758561849594116,-1.1641532182693481e-09]},{"children":[51],"name":"thigh_r","rotation":[0.9999988079071045,-3.5463060044094163e-07,-0.0002324146480532363,0.0015258528292179108],"translation":[-0.09900558739900589,0.019667234271764755,0.002530922880396247]},{"children":[44,48,52],"name":"pelvis","rotation":[0.689217209815979,8.637368154040814e-08,8.216107971747988e-08,0.7245548963546753],"scale":[1,0.9999999403953552,0.9999999403953552],"translation":[0,0.03214520215988159,0.8070307970046997]},{"children":[53],"name":"root","rotation":[-0.7071067690849304,0,0,0.7071067690849304]},{"mesh":0,"name":"Imp_Body","skin":0},{"mesh":1,"name":"Imp_Chains","skin":0},{"name":"Imp_Mace"},{"mesh":3,"name":"Imp_Shorts","skin":0},{"mesh":4,"name":"Imp_SpikedCollar","skin":0},{"children":[55,56,58,59,54],"name":"Armature"}],"materials":[{"doubleSided":true,"emissiveFactor":[1,1,1],"emissiveTexture":{"index":1},"name":"MI_Imp","pbrMetallicRoughness":{"baseColorTexture":{"index":0},"metallicFactor":0.0,"roughnessFactor":0.9}}],"meshes":[{"name":"Imp_Body","primitives":[{"attributes":{"POSITION":0,"NORMAL":1,"TEXCOORD_0":2,"TEXCOORD_1":3,"TEXCOORD_2":4,"TEXCOORD_3":5,"TEXCOORD_4":6,"COLOR_0":7,"COLOR_1":8,"COLOR_2":9,"JOINTS_0":10,"WEIGHTS_0":11},"indices":12,"material":0}]},{"name":"Imp_Chains","primitives":[{"attributes":{"POSITION":14,"NORMAL":15,"TEXCOORD_0":16,"JOINTS_0":17,"WEIGHTS_0":18},"indices":19,"material":0}]},{"name":"Imp_Mace","primitives":[{"attributes":{"POSITION":20,"NORMAL":21,"TEXCOORD_0":22,"JOINTS_0":23,"WEIGHTS_0":24},"indices":25,"material":0}]},{"name":"Teen_Male.004","primitives":[{"attributes":{"POSITION":26,"NORMAL":27,"TEXCOORD_0":28,"TEXCOORD_1":29,"COLOR_0":30,"COLOR_1":31,"JOINTS_0":32,"WEIGHTS_0":33},"indices":34,"material":0}]},{"name":"Imp_SpikedCollar","primitives":[{"attributes":{"POSITION":35,"NORMAL":36,"TEXCOORD_0":37,"TEXCOORD_1":38,"TEXCOORD_2":39,"TEXCOORD_3":40,"COLOR_0":41,"COLOR_1":42,"COLOR_2":43,"JOINTS_0":44,"WEIGHTS_0":45},"indices":46,"material":0}]}],"textures":[{"source":0,"sampler":0},{"source":1,"sampler":0}],"images":[{"uri":"T_Imp.png","name":"T_Imp","mimeType":"image/png"},{"uri":"T_Imp_Emissive.png","name":"T_Imp_Emissive","mimeType":"image/png"}],"skins":[{"inverseBindMatrices":13,"joints":[54,53,44,43,42,1,0,21,20,19,18,5,4,3,2,9,8,7,6,13,12,11,10,17,16,15,14,41,40,39,38,25,24,23,22,29,28,27,26,33,32,31,30,37,36,35,34,48,47,46,45,52,51,50,49],"name":"Armature"}],"accessors":[{"bufferView":0,"componentType":5126,"count":6582,"max":[0.8769098520278931,1.6758500337600708,0.22356700897216797],"min":[-0.8769099116325378,-0.002013362944126129,-0.1434195339679718],"type":"VEC3"},{"bufferView":1,"componentType":5126,"count":6582,"type":"VEC3"},{"bufferView":2,"componentType":5126,"count":6582,"type":"VEC2"},{"bufferView":3,"componentType":5126,"count":6582,"type":"VEC2"},{"bufferView":4,"componentType":5126,"count":6582,"type":"VEC2"},{"bufferView":5,"componentType":5126,"count":6582,"type":"VEC2"},{"bufferView":6,"componentType":5126,"count":6582,"type":"VEC2"},{"bufferView":7,"componentType":5121,"count":6582,"normalized":true,"type":"VEC4"},{"bufferView":8,"componentType":5123,"count":6582,"normalized":true,"type":"VEC4"},{"bufferView":9,"componentType":5123,"count":6582,"normalized":true,"type":"VEC4"},{"bufferView":10,"componentType":5121,"count":6582,"type":"VEC4"},{"bufferView":11,"componentType":5126,"count":6582,"type":"VEC4"},{"bufferView":12,"componentType":5123,"count":31071,"type":"SCALAR"},{"bufferView":13,"componentType":5126,"count":55,"type":"MAT4"},{"bufferView":14,"componentType":5126,"count":2816,"max":[0.6373016834259033,1.3254975080490112,0.046940967440605164],"min":[-0.6373019218444824,0.12191307544708252,-0.14181296527385712],"type":"VEC3"},{"bufferView":15,"componentType":5126,"count":2816,"type":"VEC3"},{"bufferView":16,"componentType":5126,"count":2816,"type":"VEC2"},{"bufferView":17,"componentType":5121,"count":2816,"type":"VEC4"},{"bufferView":18,"componentType":5126,"count":2816,"type":"VEC4"},{"bufferView":19,"componentType":5123,"count":6912,"type":"SCALAR"},{"bufferView":20,"componentType":5126,"count":971,"max":[-0.5912037491798401,1.3671536445617676,0.4923211932182312],"min":[-0.8541017770767212,1.1036443710327148,-0.1838880479335785],"type":"VEC3"},{"bufferView":21,"componentType":5126,"count":971,"type":"VEC3"},{"bufferView":22,"componentType":5126,"count":971,"type":"VEC2"},{"bufferView":23,"componentType":5121,"count":971,"type":"VEC4"},{"bufferView":24,"componentType":5126,"count":971,"type":"VEC4"},{"bufferView":25,"componentType":5123,"count":3711,"type":"SCALAR"},{"bufferView":26,"componentType":5126,"count":472,"max":[0.17337943613529205,0.9426999688148499,0.08907315135002136],"min":[-0.17337939143180847,0.6264938116073608,-0.11097247898578644],"type":"VEC3"},{"bufferView":27,"componentType":5126,"count":472,"type":"VEC3"},{"bufferView":28,"componentType":5126,"count":472,"type":"VEC2"},{"bufferView":29,"componentType":5126,"count":472,"type":"VEC2"},{"bufferView":30,"componentType":5121,"count":472,"normalized":true,"type":"VEC4"},{"bufferView":31,"componentType":5123,"count":472,"normalized":true,"type":"VEC4"},{"bufferView":32,"componentType":5121,"count":472,"type":"VEC4"},{"bufferView":33,"componentType":5126,"count":472,"type":"VEC4"},{"bufferView":34,"componentType":5123,"count":2388,"type":"SCALAR"},{"bufferView":35,"componentType":5126,"count":389,"max":[0.16662362217903137,1.4234360456466675,0.17794418334960938],"min":[-0.16662298142910004,1.2316302061080933,-0.10532447695732117],"type":"VEC3"},{"bufferView":36,"componentType":5126,"count":389,"type":"VEC3"},{"bufferView":37,"componentType":5126,"count":389,"type":"VEC2"},{"bufferView":38,"componentType":5126,"count":389,"type":"VEC2"},{"bufferView":39,"componentType":5126,"count":389,"type":"VEC2"},{"bufferView":40,"componentType":5126,"count":389,"type":"VEC2"},{"bufferView":41,"componentType":5121,"count":389,"normalized":true,"type":"VEC4"},{"bufferView":42,"componentType":5123,"count":389,"normalized":true,"type":"VEC4"},{"bufferView":43,"componentType":5123,"count":389,"normalized":true,"type":"VEC4"},{"bufferView":44,"componentType":5121,"count":389,"type":"VEC4"},{"bufferView":45,"componentType":5126,"count":389,"type":"VEC4"},{"bufferView":46,"componentType":5123,"count":1614,"type":"SCALAR"}],"bufferViews":[{"buffer":0,"byteLength":78984,"byteOffset":0,"target":34962},{"buffer":0,"byteLength":78984,"byteOffset":78984,"target":34962},{"buffer":0,"byteLength":52656,"byteOffset":157968,"target":34962},{"buffer":0,"byteLength":52656,"byteOffset":210624,"target":34962},{"buffer":0,"byteLength":52656,"byteOffset":263280,"target":34962},{"buffer":0,"byteLength":52656,"byteOffset":315936,"target":34962},{"buffer":0,"byteLength":52656,"byteOffset":368592,"target":34962},{"buffer":0,"byteLength":26328,"byteOffset":421248,"target":34962},{"buffer":0,"byteLength":52656,"byteOffset":447576,"target":34962},{"buffer":0,"byteLength":52656,"byteOffset":500232,"target":34962},{"buffer":0,"byteLength":26328,"byteOffset":552888,"target":34962},{"buffer":0,"byteLength":105312,"byteOffset":579216,"target":34962},{"buffer":0,"byteLength":62142,"byteOffset":684528,"target":34963},{"buffer":0,"byteLength":3520,"byteOffset":746672},{"buffer":0,"byteLength":33792,"byteOffset":750192,"target":34962},{"buffer":0,"byteLength":33792,"byteOffset":783984,"target":34962},{"buffer":0,"byteLength":22528,"byteOffset":817776,"target":34962},{"buffer":0,"byteLength":11264,"byteOffset":840304,"target":34962},{"buffer":0,"byteLength":45056,"byteOffset":851568,"target":34962},{"buffer":0,"byteLength":13824,"byteOffset":896624,"target":34963},{"buffer":0,"byteLength":11652,"byteOffset":910448,"target":34962},{"buffer":0,"byteLength":11652,"byteOffset":922100,"target":34962},{"buffer":0,"byteLength":7768,"byteOffset":933752,"target":34962},{"buffer":0,"byteLength":3884,"byteOffset":941520,"target":34962},{"buffer":0,"byteLength":15536,"byteOffset":945404,"target":34962},{"buffer":0,"byteLength":7422,"byteOffset":960940,"target":34963},{"buffer":0,"byteLength":5664,"byteOffset":968364,"target":34962},{"buffer":0,"byteLength":5664,"byteOffset":974028,"target":34962},{"buffer":0,"byteLength":3776,"byteOffset":979692,"target":34962},{"buffer":0,"byteLength":3776,"byteOffset":983468,"target":34962},{"buffer":0,"byteLength":1888,"byteOffset":987244,"target":34962},{"buffer":0,"byteLength":3776,"byteOffset":989132,"target":34962},{"buffer":0,"byteLength":1888,"byteOffset":992908,"target":34962},{"buffer":0,"byteLength":7552,"byteOffset":994796,"target":34962},{"buffer":0,"byteLength":4776,"byteOffset":1002348,"target":34963},{"buffer":0,"byteLength":4668,"byteOffset":1007124,"target":34962},{"buffer":0,"byteLength":4668,"byteOffset":1011792,"target":34962},{"buffer":0,"byteLength":3112,"byteOffset":1016460,"target":34962},{"buffer":0,"byteLength":3112,"byteOffset":1019572,"target":34962},{"buffer":0,"byteLength":3112,"byteOffset":1022684,"target":34962},{"buffer":0,"byteLength":3112,"byteOffset":1025796,"target":34962},{"buffer":0,"byteLength":1556,"byteOffset":1028908,"target":34962},{"buffer":0,"byteLength":3112,"byteOffset":1030464,"target":34962},{"buffer":0,"byteLength":3112,"byteOffset":1033576,"target":34962},{"buffer":0,"byteLength":1556,"byteOffset":1036688,"target":34962},{"buffer":0,"byteLength":6224,"byteOffset":1038244,"target":34962},{"buffer":0,"byteLength":3228,"byteOffset":1044468,"target":34963}],"samplers":[{"magFilter":9729,"minFilter":9987,"wrapS":10497,"wrapT":10497}],"buffers":[{"uri":"imp.bin","byteLength":1047696}]}